<svg width="600" height="300" viewBox="0 0 600 300" fill="none" xmlns="http://www.w3.org/2000/svg">
<path d="M330.304 305.061C330.304 305.061 322.913 304.738 323.636 317.486C324.198 327.974 329.822 336.366 335.848 325.554C341.874 314.742 351.756 312.645 351.917 296.831C352.077 281.017 343.4 284.728 339.704 296.347C337.133 304.254 330.304 305.061 330.304 305.061Z" stroke="#FFE05C" stroke-miterlimit="10"/>
<path d="M316.484 331.202C318.894 340.077 325.241 346.854 335.445 338.463C342.435 332.815 349.746 327.652 352.719 319.26C355.451 311.354 355.29 305.383 356.174 293.442C356.977 281.824 357.941 274.239 355.29 273.917C352.719 265.041 346.613 274.562 340.908 283.276C338.177 287.471 334.642 292.151 332.151 290.376C328.937 288.117 321.706 290.699 321.465 295.862C321.224 300.219 318.01 304.254 315.841 312.322C314.797 316.033 314.475 320.552 314.957 325.07C315.118 327.329 315.681 329.749 316.484 331.202Z" stroke="#FFCF00" stroke-opacity="0.74" stroke-width="0.1563" stroke-miterlimit="10"/>
<path d="M309.333 345.079C314.073 351.211 321.143 358.957 335.043 351.534C346.853 345.241 358.262 336.85 361.476 323.133C364.529 309.579 362.118 300.219 362.44 279.565C362.761 259.071 363.886 247.13 358.503 251.164C353.2 249.389 348.862 263.105 341.952 270.367C337.051 275.369 331.668 284.083 328.133 278.435C324.437 272.465 312.868 276.176 312.386 286.665C311.904 295.54 308.609 303.77 306.199 316.518C304.994 322.811 304.833 329.911 306.038 336.527C306.681 339.916 307.886 343.143 309.333 345.079Z" stroke="#FFE05C" stroke-miterlimit="10"/>
<path d="M302.265 358.795C308.612 363.959 317.129 371.382 334.724 364.443C351.355 357.988 366.861 346.047 370.316 326.683C373.771 307.642 369.031 294.894 368.79 265.364C368.468 235.996 370.156 221.15 361.88 228.089C354.087 234.543 351.275 250.841 343.16 257.135C336.009 262.621 328.618 275.692 324.36 266.171C320.021 256.489 304.354 261.33 303.55 277.144C302.908 290.376 299.453 302.963 296.721 320.229C295.355 329.104 295.436 338.786 297.284 347.338C298.248 352.502 299.855 357.02 302.265 358.795Z" stroke="#FFCF00" stroke-opacity="0.74" stroke-width="0.1563" stroke-miterlimit="10"/>
<path d="M286.999 324.263C285.472 335.72 285.793 347.984 288.284 358.634C289.73 365.089 291.899 370.898 295.113 372.511C303.148 376.868 312.95 383.807 334.401 377.352C355.853 370.898 375.377 355.084 379.153 330.395C382.929 305.706 375.939 289.569 375.136 251.487C374.332 213.243 375.939 192.911 365.254 205.175C354.568 217.6 353.684 238.578 344.284 244.064C334.883 249.389 325.483 267.624 320.422 254.069C315.36 240.514 295.595 246.646 294.47 267.624C293.506 285.374 290.052 302.156 286.999 324.263Z" stroke="#FFCF00" stroke-opacity="0.74" stroke-width="0.1563" stroke-miterlimit="10"/>
<path d="M415.387 323.456C415.387 361.538 408.879 394.619 395.542 424.471C377.866 464.006 348.38 444.319 321.626 444.158C313.672 444.158 307.325 457.551 307.726 473.365C307.807 477.399 307.887 481.272 307.887 485.145C307.887 505.477 312.547 531.134 308.208 561.632C303.95 591.324 298.005 613.915 282.338 622.145C264.341 631.504 240.237 623.113 223.686 603.104C202.797 585.837 174.436 483.693 190.906 383.646C203.118 309.256 235.176 364.927 246.906 347.177C251.566 340.238 259.44 331.525 261.046 308.288C265.546 243.419 268.518 168.868 279.606 158.379C292.702 145.954 306.28 144.824 318.332 149.826C320.34 145.469 322.429 140.79 324.84 135.787C331.267 122.555 337.534 112.712 344.042 105.935C356.656 92.7027 387.186 61.8818 399.8 70.9183C410.004 78.3411 418.842 181.454 419.886 208.079C420.529 223.248 411.611 260.039 412.655 272.626C413.941 288.924 415.387 305.544 415.387 323.456Z" stroke="#FFCF00" stroke-opacity="0.74" stroke-width="0.1563" stroke-miterlimit="10"/>
<path d="M227.382 588.741C221.275 583.416 213.321 571.314 207.778 546.625C203.6 528.229 197.815 507.897 195.887 484.176C193.075 449.16 197.333 417.693 204.484 387.034C213.562 348.629 227.221 349.274 239.031 351.372C245.057 352.501 250.28 353.308 253.654 347.015C257.43 339.915 263.858 331.201 265.224 310.385C266.83 286.18 268.277 259.877 270.205 235.995C272.776 204.367 276.391 179.84 282.417 173.708C294.147 161.767 306.761 161.282 317.688 166.285C319.616 163.057 321.545 159.346 323.875 156.119C330.302 146.759 336.73 137.077 343.88 127.88C346.933 123.845 350.951 119.004 355.53 113.841C370.313 96.5745 386.382 88.5062 395.943 104.643C403.415 117.229 411.61 200.817 412.735 225.022C413.378 238.899 406.388 269.882 407.272 281.5C408.396 295.7 409.521 310.384 409.441 325.876C409.28 358.794 403.576 387.517 391.765 413.82C375.295 450.612 344.925 434.152 318.813 433.184C310.618 432.861 304.431 443.512 303.467 456.26C303.387 457.55 303.226 458.68 303.146 459.81C302.985 461.907 302.744 464.166 302.583 466.264C301.137 482.401 303.628 505.96 302.664 528.552C302.503 532.263 302.342 536.458 301.86 540.977C299.129 569.216 294.629 595.034 281.453 604.878C266.348 615.851 242.084 607.298 227.382 588.741Z" stroke="#FFCF00" stroke-opacity="0.74" stroke-width="0.1563" stroke-miterlimit="10"/>
<path d="M231.078 574.38C226.016 569.378 217.821 560.987 213.483 533.232C210.59 514.513 203.842 495.795 202.877 473.042C201.271 437.058 209.948 413.337 218.062 390.423C228.025 362.506 238.711 356.536 248.673 355.083C253.494 354.438 257.592 353.631 260.323 346.854C263.216 339.592 268.197 330.879 269.402 312.321C270.768 291.021 271.973 267.462 273.741 244.87C275.99 216.309 279.606 195.008 285.23 188.876C295.594 177.419 307.244 177.581 317.127 182.583C319.055 180.485 320.822 177.903 322.992 176.128C329.66 170.481 336.168 161.121 343.72 149.342C346.773 144.662 350.71 139.176 355.049 133.044C369.993 112.389 385.178 106.741 392.007 137.723C398.515 150.632 404.38 219.374 405.505 241.32C406.148 254.068 401.086 279.241 401.809 289.73C402.693 302.155 403.577 314.58 403.416 327.812C403.014 355.567 398.113 379.934 387.829 402.848C372.564 436.896 341.31 423.503 315.761 422.05C307.325 421.566 301.138 429.634 299.049 438.832C298.808 439.801 298.487 440.769 298.326 441.737C297.924 443.512 297.523 445.448 297.121 447.385C294.228 462.23 295.835 488.049 295.675 508.058C295.675 511.608 295.675 515.643 295.434 520.161C294.148 546.786 291.175 576.155 280.57 587.289C268.358 600.36 244.014 591.485 231.078 574.38Z" stroke="#FFCF00" stroke-opacity="0.74" stroke-width="0.1563" stroke-miterlimit="10"/>
<path d="M234.853 560.018C230.756 555.5 222.239 550.982 219.347 519.838C217.579 500.958 209.786 483.692 210.027 461.908C210.348 424.955 222.561 408.818 231.8 393.811C242.486 376.545 250.279 364.12 258.394 358.795C262.009 356.374 264.982 354.115 267.071 346.692C269.16 339.27 272.615 330.394 273.579 314.258C274.623 295.862 275.748 275.207 277.355 253.907C279.283 228.573 282.819 210.338 288.121 204.045C297.2 193.233 307.725 193.717 316.563 198.881C318.411 197.913 320.178 196.622 322.026 196.138C329.177 194.524 335.444 185.326 343.559 170.965C346.612 165.478 350.388 159.346 354.566 152.569C369.67 128.203 379.633 129.978 388.069 171.126C391.524 187.908 397.148 238.416 398.353 257.941C399.076 269.398 395.862 288.762 396.425 298.444C397.068 308.932 397.71 319.26 397.389 330.071C396.907 352.501 392.649 372.672 383.972 392.036C369.992 423.341 337.693 413.175 312.867 410.916C304.19 410.109 297.602 415.596 294.79 421.566C294.388 422.373 293.986 423.018 293.665 423.664C293.022 425.116 292.46 426.568 291.897 428.343C287.559 442.06 288.282 469.976 288.925 487.242C289.085 490.469 289.246 494.503 289.246 499.183C289.246 524.195 287.961 557.113 279.926 569.7C270.365 584.707 245.941 575.509 234.853 560.018Z" stroke="#FFE05C" stroke-miterlimit="10"/>
<path d="M238.629 545.657C235.496 541.623 226.497 540.816 225.131 506.445C224.408 487.404 216.454 471.59 217.017 450.774C218.142 412.853 234.773 403.978 245.378 397.2C256.546 389.939 261.768 372.189 268.035 362.507C270.445 358.795 272.374 354.438 273.74 346.693C275.025 339.27 276.953 330.233 277.676 316.517C278.48 301.026 279.364 283.114 280.81 263.105C282.417 240.837 285.952 225.991 290.853 219.536C298.646 209.37 308.127 210.338 315.84 215.502C317.607 215.663 319.375 215.825 320.982 216.47C328.695 220.02 334.721 210.016 343.237 192.911C346.29 186.779 349.906 179.84 353.923 172.417C369.108 144.501 377.946 150.31 383.891 204.852C385.98 223.57 389.676 257.618 390.881 274.885C391.604 285.051 390.319 298.767 390.72 307.319C391.202 315.872 391.443 324.101 391.122 332.492C390.399 349.758 387.024 365.572 379.874 381.386C367.099 409.948 333.917 402.687 309.653 399.943C300.735 398.975 293.584 401.396 290.13 404.462C289.567 404.946 289.005 405.269 288.603 405.753C287.719 406.721 286.916 408.012 286.193 409.625C280.328 421.889 280.247 452.065 281.694 466.91C281.935 469.815 282.336 473.849 282.577 478.69C283.783 501.927 284.265 538.557 278.801 552.596C272.454 569.216 247.949 559.696 238.629 545.657Z" stroke="#FFCF00" stroke-opacity="0.74" stroke-width="0.1563" stroke-miterlimit="10"/>
<path d="M230.998 493.052C230.516 530.65 240.318 527.745 242.407 531.457C249.879 544.043 274.544 553.887 278.16 535.168C281.775 516.288 277.356 460.133 274.946 446.417C272.536 432.701 273.741 393.489 284.025 387.841C294.309 382.193 359.307 408.334 376.179 370.575C393.052 332.976 382.928 305.544 380.197 238.254C377.465 170.965 368.948 160.315 353.683 191.942C338.418 223.732 330.624 249.55 320.18 236.641C309.735 223.732 288.283 217.761 284.587 272.142C280.811 326.522 281.936 351.695 277.919 366.218C273.901 380.741 270.929 402.848 259.199 400.589C247.388 398.491 226.981 400.912 224.249 439.64C222.803 459.488 231.239 473.688 230.998 493.052Z" stroke="#FFCF00" stroke-opacity="0.74" stroke-width="0.1563" stroke-miterlimit="10"/>
<path d="M489.305 469.008C489.305 469.008 466.086 471.267 450.338 453.839C434.671 436.412 418.281 429.634 408.399 436.25C398.517 442.866 407.354 425.923 415.389 403.816C423.423 381.547 429.047 344.594 425.271 306.351C421.495 268.107 417.478 266.977 424.227 242.772C430.975 218.568 422.62 91.0884 405.748 53.9742C388.875 16.86 404.462 -60.5957 380.198 -94.4826C355.934 -128.369 310.138 -188.075 328.617 -225.189C347.096 -262.303 428.887 -228.416 452.668 -251.008C476.45 -273.599 494.126 -312.327 508.588 -289.736C523.05 -267.144 539.118 -249.394 535.905 -89.6417C532.691 70.1107 551.973 78.1789 523.853 216.954C495.733 355.729 489.305 469.008 489.305 469.008Z" stroke="#FFCF00" stroke-opacity="0.74" stroke-width="0.1563" stroke-miterlimit="10"/>
<path d="M489.063 425.278C488.58 433.346 478.939 436.896 476.047 436.735C454.354 436.251 424.868 421.728 427.037 409.141C435.634 360.086 427.358 277.305 433.304 264.235C435.714 259.071 435.714 202.916 432.179 172.095C431.697 168.222 433.384 162.251 435.473 165.317C459.898 201.625 486.733 167.738 504.81 160.315C504.81 160.315 504.81 160.315 504.89 160.315C507.381 159.347 510.032 162.251 509.872 165.963C509.631 171.772 509.39 177.904 508.988 184.681C508.345 196.461 507.381 209.37 506.176 222.925C504.81 238.416 503.685 253.746 502.882 268.591C500.15 316.356 489.304 350.727 489.545 379.611C489.625 398.168 489.786 412.691 489.063 425.278Z" stroke="#FFCF00" stroke-opacity="0.74" stroke-width="0.1563" stroke-miterlimit="10"/>
<path d="M435.232 389.938C439.329 350.565 435.634 286.503 440.133 276.659C441.9 272.787 443.106 228.088 440.213 202.754C439.892 199.527 441.097 195.008 442.623 197.106C460.781 221.472 481.992 193.556 496.695 189.36C496.695 189.36 496.695 189.36 496.775 189.36C498.704 188.715 500.792 191.135 500.712 194.04C500.632 198.558 500.471 203.399 500.31 208.724C499.909 218.084 499.346 228.25 498.463 238.9C497.498 251.164 496.615 263.266 495.891 275.207C493.642 312.483 485.206 339.915 485.125 363.152C485.125 377.674 485.125 389.131 484.563 399.136C484.161 405.913 476.85 409.141 474.6 409.464C457.889 412.207 434.107 400.589 435.232 389.938Z" stroke="#FFE05C" stroke-miterlimit="10"/>
<path d="M443.346 370.736C447.042 342.82 443.828 295.701 446.801 289.247C448.006 286.665 450.336 253.585 448.086 233.414C447.845 230.993 448.649 227.766 449.693 228.734C461.584 241.321 477.091 219.052 488.499 218.407C489.865 218.245 491.392 220.02 491.472 222.118C491.553 225.346 491.553 228.896 491.472 232.768C491.392 239.707 491.151 247.13 490.588 255.037C489.946 264.073 489.383 273.11 488.821 281.824C487.134 308.61 480.947 328.943 480.706 346.693C480.545 357.182 480.545 365.734 480.144 373.318C479.822 378.805 474.921 381.871 473.234 382.677C461.424 388.164 442.221 379.612 443.346 370.736Z" stroke="#FFCF00" stroke-opacity="0.74" stroke-width="0.1563" stroke-miterlimit="10"/>
<path d="M451.542 351.534C448.65 333.783 452.105 304.899 453.631 301.672C454.194 300.381 457.729 278.758 456.202 264.073C456.042 262.46 456.363 260.362 456.925 260.523C462.63 261.491 472.351 244.548 480.466 247.453C481.35 247.614 482.234 248.744 482.475 250.196C482.716 252.294 482.876 254.391 482.957 256.812C483.198 261.33 483.278 266.01 483.037 271.012C482.796 276.821 482.394 282.63 481.993 288.278C480.787 304.576 477.011 317.97 476.529 330.072C476.288 336.527 476.127 342.174 475.886 347.177C475.645 351.211 473.074 354.116 471.95 355.406C465.04 363.475 452.828 359.441 451.542 351.534Z" stroke="#FFCF00" stroke-opacity="0.74" stroke-width="0.1563" stroke-miterlimit="10"/>
<path d="M460.3 314.097C460.3 314.097 454.837 324.102 459.658 332.331C463.594 339.109 470.584 337.495 471.307 321.358C472.031 305.222 478.458 290.053 473.155 278.274C467.853 266.494 462.791 281.178 464.077 294.733C465.041 304.092 460.3 314.097 460.3 314.097Z" stroke="#FFE05C" stroke-miterlimit="10"/>
<path d="M514.612 141.919C514.612 141.919 464.96 176.613 450.418 164.511C435.875 152.408 430.814 151.601 426.957 128.203C423.02 104.805 416.994 41.0656 409.764 34.611C402.533 28.1564 402.131 -30.7422 402.131 -30.7422C402.131 -30.7422 428.725 22.5085 450.578 8.7924C472.432 -4.92373 496.937 -25.0945 506.578 -45.2652C516.219 -65.436 526.664 -27.515 523.852 37.8382C521.04 103.191 527.226 133.851 514.612 141.919Z" stroke="#FFE05C" stroke-miterlimit="10"/>
<path d="M433.063 120.781C429.769 100.287 423.261 47.8434 419.083 43.3252C414.343 38.1615 414.664 -5.08462 415.468 -4.60052C416.432 -3.95506 431.456 24.6067 446.239 26.543C449.132 26.8657 452.104 26.2203 454.916 24.1225C472.271 11.2132 491.553 -8.31216 499.186 -21.7055C506.899 -35.2603 514.612 -5.56891 512.443 44.9386C510.273 96.253 514.692 121.426 505.212 127.397C505.212 127.397 467.209 154.183 454.595 146.438C441.901 138.531 436.357 141.113 433.063 120.781Z" stroke="#FFCF00" stroke-opacity="0.74" stroke-width="0.1563" stroke-miterlimit="10"/>
<path d="M439.25 113.196C436.599 95.6076 429.448 54.9432 428.404 51.7159C425.913 48.4886 427.279 20.2496 428.805 21.2178C430.814 22.5087 442.142 42.518 452.828 42.0339C454.997 42.0339 457.167 40.9044 459.256 38.968C472.03 26.8655 486.09 8.14698 491.795 1.53095C497.58 -5.24644 502.481 15.8925 501.034 51.7158C499.508 88.9914 502.159 108.517 495.812 112.551C495.812 112.551 469.54 131.269 458.693 127.881C447.927 124.815 441.982 130.785 439.25 113.196Z" stroke="#FFCF00" stroke-opacity="0.74" stroke-width="0.1563" stroke-miterlimit="10"/>
<path d="M445.437 105.773C443.348 91.2499 435.635 62.0427 437.805 60.4291C437.724 58.8154 439.894 45.9062 442.224 47.3585C445.196 49.2949 452.99 60.4291 459.578 57.8472C460.944 57.3631 462.39 56.0721 463.675 54.1357C471.871 42.6787 480.226 22.9921 484.404 24.9285C487.698 23.1534 490.43 37.6764 489.627 58.8153C488.743 82.052 489.546 96.0909 486.413 98.1887C486.413 98.1887 471.79 109 462.872 109.968C453.954 110.937 447.526 120.296 445.437 105.773Z" stroke="#FFCF00" stroke-opacity="0.74" stroke-width="0.1563" stroke-miterlimit="10"/>
<path d="M477.092 83.5054C477.092 83.5054 474.119 86.2487 467.049 91.7352C459.978 97.2216 453.069 109.97 451.623 98.3512C450.176 86.7328 441.901 68.9825 447.123 68.9825C452.346 68.9825 461.666 81.4077 466.245 73.6622C470.745 65.9166 474.28 37.6774 477.092 48.489C479.823 58.9778 477.092 83.5054 477.092 83.5054Z" stroke="#FFE05C" stroke-miterlimit="10"/>
<path d="M64.526 1038.31L106.305 1021.04C106.305 1021.04 97.226 931.646 110.081 904.859C122.936 878.072 172.187 797.389 177.008 752.206C181.828 707.024 211.716 638.766 233.811 631.666C233.811 631.666 166.322 601.49 176.526 430.442C186.729 259.394 226.339 338.948 237.024 323.941C247.71 308.934 261.69 236.319 265.948 174.677C270.207 113.035 302.907 143.211 314.717 127.074C326.528 110.937 391.847 62.5275 391.847 47.5205C391.847 32.5134 391.285 -58.9811 376.823 -77.2155C362.361 -95.4499 313.592 -176.778 302.826 -232.45C292.14 -288.121 195.888 -358.315 153.628 -322.008C111.367 -285.7 5.31257 -250.684 5.31257 -250.684C5.31257 -250.684 -1.91839 -14.6053 0.491927 128.204C2.90224 270.851 13.7487 994.901 17.3641 1009.26C20.9796 1023.62 64.526 1038.31 64.526 1038.31Z" stroke="#FFCF00" stroke-opacity="0.74" stroke-width="0.1563" stroke-miterlimit="10"/>
<path d="M23.7112 999.742C20.4975 966.662 12.3828 450.452 8.76731 221.796C8.2049 184.037 7.64249 153.377 7.32112 133.206C7.16043 121.265 6.99974 109.001 6.9194 96.8988C6.75871 75.1144 6.75872 51.8778 6.9194 27.8342C7.64251 -94.6427 11.5794 -228.899 11.8204 -239.388C17.9265 -241.647 76.8186 -262.463 121.731 -287.475C136.112 -295.544 151.78 -301.191 164.956 -308.291C205.128 -330.076 287.159 -274.566 296.961 -226.479C307.647 -171.937 352.318 -95.7725 367.824 -74.4722C376.582 -62.5311 381.242 -30.4193 383.652 -3.30982C384.214 6.69488 384.616 16.5382 384.857 25.0906C384.616 32.6748 384.375 38.4841 383.893 41.3887C383.09 46.391 376.501 53.9752 367.985 62.3662C356.817 73.3392 343.48 84.9575 332.152 95.1236C331.428 95.6077 330.705 96.2532 330.063 96.7373C320.582 104.16 312.548 110.776 308.611 115.294C295.434 129.979 266.511 108.356 261.208 163.382C258.958 186.941 255.584 212.114 252.049 234.867C246.746 268.915 239.917 297.961 233.891 308.611C232.847 310.386 231.561 311.193 230.034 311.516C218.706 310.386 198.379 287.956 183.997 338.786C179.337 355.246 175.24 378.16 172.669 410.11C167.688 470.784 173.151 515.482 181.908 546.465C186.488 562.763 192.032 575.511 197.495 585.031C207.779 602.943 217.581 608.913 217.742 611.172C199.986 626.018 176.847 689.758 175.079 732.681C171.062 760.436 150.896 803.037 134.747 838.699C127.596 852.576 120.526 865.97 114.661 877.588C113.696 879.524 112.893 881.138 112.09 882.752C104.055 899.372 102.689 936.003 102.85 962.144C102.93 977.958 103.653 989.737 103.252 990.544C102.85 991.19 94.0122 995.385 93.6908 996.031C92.6463 997.967 65.6508 1011.2 65.0883 1014.1C64.6063 1017.01 43.3955 1013.46 31.9866 1008.78C27.8891 1005.87 24.836 1002.81 23.7112 999.742Z" stroke="#FFCF00" stroke-opacity="0.74" stroke-width="0.1563" stroke-miterlimit="10"/>
<path d="M29.978 990.384C26.6839 936.649 18.8906 441.901 15.4358 225.509C14.8734 188.879 14.3913 159.026 14.07 138.371C13.8289 126.108 13.7486 114.166 13.5879 102.709C13.4272 81.7319 13.3469 58.8179 13.5076 34.7743C14.07 -80.1183 17.6051 -207.113 18.1675 -227.93C30.2995 -232.609 88.9505 -254.394 131.211 -279.406C143.825 -286.828 160.055 -289.572 176.043 -294.413C213.162 -305.386 282.017 -260.687 290.855 -220.507C301.541 -167.256 342.034 -96.0939 358.585 -71.889C367.664 -58.657 373.288 -30.0952 376.501 -6.37439C377.144 2.82348 377.546 12.3441 377.867 21.0578C377.225 27.5125 376.582 32.6762 375.778 35.4195C374.171 40.5832 367.744 47.3605 360.031 54.9447C348.301 66.2404 335.767 77.0519 325.403 86.7339C324.68 87.218 323.957 87.5407 323.314 88.0248C314.235 93.834 306.522 99.6433 302.264 103.516C287.641 116.909 262.333 103.516 256.227 151.926C253.334 174.517 249.879 198.561 246.826 220.668C242.327 252.78 236.221 281.019 230.597 293.121C229.713 295.058 228.588 296.187 227.222 296.833C215.733 295.542 196.852 278.921 181.908 322.974C176.525 338.949 171.785 360.25 168.652 389.457C162.626 445.289 166 489.827 172.749 521.293C176.204 537.268 180.382 550.662 184.961 560.828C192.916 578.578 201.111 585.839 201.432 590.519C188.015 613.11 171.624 672.493 172.83 712.996C167.929 739.299 149.208 780.608 135.309 817.238C129.363 829.018 123.097 842.089 116.348 855.482C115.464 857.257 114.661 858.871 113.857 860.485C105.823 877.267 102.609 910.024 101.404 933.745C100.681 947.622 100.761 958.111 99.8772 959.886C99.1541 961.338 91.6018 965.372 91.0394 966.663C89.1915 970.536 66.6952 984.091 65.7311 989.739C64.6063 995.709 47.3323 997 38.1731 998.13C34.3969 995.709 31.4242 992.966 29.978 990.384Z" stroke="#FFE05C" stroke-miterlimit="10"/>
<path d="M36.326 980.862C32.9516 906.311 25.4796 433.347 22.1855 229.057C21.6231 193.718 21.1411 164.35 20.8197 143.372C20.5786 130.947 20.418 119.167 20.3376 108.194C20.0966 87.862 20.0162 65.2708 20.0966 41.55C20.4983 -65.7585 23.7121 -185.492 24.4352 -216.636C42.6732 -223.575 101.083 -246.327 140.693 -271.662C151.62 -278.601 168.251 -279.085 187.132 -280.698C220.715 -283.603 276.795 -247.134 284.749 -214.538C295.435 -162.417 331.831 -96.5797 349.426 -69.3089C358.827 -54.7859 365.415 -29.6128 369.512 -9.44199C370.155 -1.05095 370.637 8.14686 371.039 17.022C369.994 22.3471 368.95 26.8654 367.745 29.2859C365.174 34.4496 358.987 40.7429 352.238 47.1975C340.026 58.8159 328.296 68.982 318.815 78.0185C318.092 78.3413 317.449 78.664 316.807 78.9867C308.21 83.3436 300.818 88.0232 296.078 91.5732C280.009 103.514 258.156 98.512 251.326 140.306C247.791 161.929 244.336 185.004 241.605 206.305C237.829 236.48 232.446 263.912 227.304 277.628C226.5 279.726 225.536 281.017 224.491 282.147C212.842 280.694 195.086 269.399 179.901 307.158C173.714 322.488 168.331 342.336 164.635 368.8C157.565 419.792 159.011 464.006 163.671 496.118C166.001 511.771 168.893 525.648 172.509 536.621C178.213 554.049 184.802 562.924 185.203 569.701C176.044 600.038 166.483 655.064 170.661 693.146C164.796 717.997 147.602 758.016 135.952 795.614C131.293 805.296 125.668 817.882 118.116 833.212C117.313 834.987 116.509 836.601 115.706 838.053C107.671 854.997 102.77 883.72 100.119 905.343C98.6729 917.123 98.0301 926.643 96.7446 929.064C95.6198 931.161 89.5137 935.357 88.6299 937.132C85.7375 943.103 67.7405 956.98 66.2943 965.532C64.6874 974.569 51.3503 980.701 44.4407 987.64C40.9056 985.381 38.0132 983.121 36.326 980.862Z" stroke="#FFCF00" stroke-opacity="0.74" stroke-width="0.1563" stroke-miterlimit="10"/>
<path d="M42.6735 971.341C39.2187 876.135 32.0681 424.794 29.015 232.607C28.4526 198.398 28.0509 169.675 27.6492 148.374C27.4082 135.626 27.2475 124.169 27.1671 113.842C26.9261 94.1553 26.8458 72.0481 26.8458 48.3273C27.0868 -51.2356 29.8988 -163.708 30.9433 -205.34C55.2875 -214.538 113.376 -238.259 150.334 -263.755C159.494 -270.048 176.527 -269.403 198.38 -266.982C228.509 -263.432 271.734 -233.418 278.804 -208.729C289.49 -157.737 321.708 -97.0639 340.348 -66.8884C350.069 -51.0745 357.622 -29.2901 362.523 -12.6694C363.166 -5.24652 363.808 3.62859 364.21 12.8265C362.844 17.022 361.318 20.7334 359.791 23.1539C356.256 28.3177 350.391 33.9654 344.445 39.4519C331.671 51.393 320.744 60.7522 312.147 69.3046C311.504 69.466 310.781 69.7888 310.139 69.9502C302.024 73.0161 294.873 76.5662 289.812 79.6321C272.297 90.2823 253.737 93.5096 246.426 128.687C242.168 149.342 238.713 171.449 236.463 191.943C233.41 220.182 228.67 246.485 224.09 261.976C223.447 264.235 222.644 265.849 221.76 267.301C209.95 265.687 193.077 259.555 177.892 291.183C170.822 305.867 164.877 324.263 160.699 347.984C152.504 394.135 152.102 438.026 154.593 470.784C155.798 486.275 157.405 500.314 160.056 512.255C163.671 528.875 168.412 539.687 169.055 548.723C164.234 586.967 161.422 637.313 168.572 673.137C161.824 696.696 146.076 735.263 136.676 773.829C133.221 781.413 128.32 793.516 119.884 810.782C119.081 812.396 118.357 814.009 117.634 815.462C109.52 832.889 103.012 857.578 98.7535 876.942C96.5843 886.786 95.2184 895.015 93.4508 898.404C91.9243 901.308 87.184 905.343 86.0592 907.763C82.2027 915.831 68.7852 929.87 66.7766 941.166C64.768 953.268 55.2875 964.403 50.6275 976.989C47.4138 975.214 44.6017 973.278 42.6735 971.341Z" stroke="#FFCF00" stroke-opacity="0.74" stroke-width="0.1563" stroke-miterlimit="10"/>
<path d="M49.02 961.822C45.4046 845.799 38.5754 416.243 35.7633 236.319C35.2009 203.401 34.7992 175.323 34.4778 153.539C34.2368 140.629 34.0761 129.172 33.9154 119.652C33.5941 100.61 33.5137 78.8259 33.5137 55.2665C33.6744 -36.7122 36.0847 -141.923 37.2899 -193.883C67.6599 -205.34 125.668 -229.706 159.895 -255.686C167.367 -261.334 184.962 -261.011 209.628 -252.943C236.462 -244.068 266.752 -219.54 272.858 -202.436C283.464 -152.573 311.664 -97.2248 331.268 -63.822C341.311 -46.7172 349.828 -28.4828 355.532 -15.4122C356.255 -8.79616 356.898 -0.243736 357.38 9.1155C355.612 12.1815 353.684 15.2474 351.756 17.3451C347.257 22.3475 341.633 27.6726 336.651 32.1909C323.314 44.2933 313.271 53.1685 305.558 61.0755C304.915 61.2368 304.192 61.3981 303.63 61.3981C295.917 63.0118 289.168 65.4323 283.705 68.1755C264.744 77.3734 249.237 88.6691 241.685 117.554C236.543 137.079 233.249 158.218 231.481 178.066C229.071 204.53 225.054 229.703 221.036 246.808C220.474 249.067 219.831 251.165 219.189 252.94C207.217 251.165 191.148 249.713 176.044 275.693C168.009 289.409 161.582 306.836 156.922 327.653C147.682 368.962 145.433 412.531 145.754 445.934C145.915 461.102 146.397 475.464 147.843 488.535C149.53 504.348 152.262 517.096 153.065 528.392C152.503 574.381 156.44 620.371 166.724 653.773C159.011 675.881 144.79 713.156 137.639 752.691C135.39 758.177 131.212 769.796 121.972 788.998C121.249 790.612 120.526 792.064 119.803 793.517C111.367 810.783 103.333 831.76 97.4674 848.542C94.6554 856.611 92.4861 863.55 90.3168 867.745C88.4689 871.295 85.0945 875.329 83.6483 878.234C78.8276 888.4 69.9095 902.6 67.4188 916.962C64.7675 931.969 59.2237 947.944 56.8134 966.34C53.921 964.888 51.1893 963.435 49.02 961.822Z" stroke="#FFCF00" stroke-opacity="0.74" stroke-width="0.1563" stroke-miterlimit="10"/>
<path d="M350.47 4.91991C343.078 11.8587 334.642 19.2816 328.857 24.4453C314.958 36.7091 305.718 44.9388 298.969 52.3616C298.327 52.3616 297.684 52.3616 297.041 52.3616C244.818 53.9754 229.713 113.842 226.258 163.704C224.33 191.298 220.232 218.569 216.456 238.256C204.405 236.319 188.979 239.224 174.115 259.879C146.959 297.477 139.808 369.769 136.755 420.922C135.871 435.768 135.389 450.452 135.389 464.491C135.389 539.849 148.003 595.197 164.554 634.248C155.877 654.903 143.022 690.888 138.201 731.39C137.237 734.779 133.702 745.752 123.659 767.052C114.821 785.609 104.457 804.812 96.1814 820.142C89.9145 831.76 84.9332 840.958 81.157 848.865C69.2661 873.715 63.3207 908.732 63.0797 955.689C60.4283 954.56 57.8573 953.592 55.3666 952.462C51.7512 815.785 45.2433 407.69 42.5117 239.869C41.7082 189.2 41.0655 149.343 40.6638 125.299C40.3424 106.904 40.1817 85.6033 40.1817 62.0439C40.1817 -22.1893 42.1903 -120.3 43.7168 -182.587C80.193 -196.465 138.041 -220.992 169.455 -247.941C175.24 -252.943 193.719 -254.718 220.795 -239.388C244.818 -225.672 261.61 -206.147 266.832 -196.788C282.74 -123.527 329.179 -47.0399 348.461 -18.6395C349.184 -12.9917 349.908 -4.76206 350.47 4.91991Z" stroke="#FFCF00" stroke-opacity="0.74" stroke-width="0.1563" stroke-miterlimit="10"/>
<path d="M61.3117 880.007C61.3117 880.007 95.2169 766.244 112.571 759.628C129.925 753.012 152.904 632.633 146.958 612.3C141.093 591.807 111.205 431.732 132.898 333.944C154.591 236.156 181.265 206.949 203.199 214.533C225.133 222.117 218.224 61.5579 242.327 32.512C266.43 3.46606 319.457 47.6803 330.705 -4.11823C341.953 -55.7554 266.992 -77.217 258.958 -156.932C250.924 -236.485 200.066 -229.062 182.39 -219.38C164.714 -209.698 64.7666 -185.009 53.2774 -139.665C41.7882 -94.3216 61.3117 880.007 61.3117 880.007Z" stroke="#FFE05C" stroke-miterlimit="10"/>
<path d="M65.6506 802.714C65.6506 802.714 71.0337 819.98 83.3263 790.934C95.6189 761.888 97.2258 745.268 112.652 738.167C128.078 731.067 146.557 652.643 139.567 626.018C132.577 599.393 100.6 418.501 124.141 348.468C135.952 313.452 115.946 286.665 101.002 273.756C86.1384 260.847 67.0969 266.494 62.3566 305.706C52.9563 384.13 39.3782 439.156 37.2089 494.989C35.0396 550.983 60.5086 658.453 65.5703 704.765C70.7123 751.077 60.5086 787.707 65.6506 802.714Z" stroke="#FFCF00" stroke-opacity="0.74" stroke-width="0.1563" stroke-miterlimit="10"/>
<path d="M61.071 223.894C61.071 223.894 61.312 250.842 72.8815 244.387C84.3707 237.933 116.026 262.138 123.498 276.176C130.97 290.215 141.174 246.646 159.412 221.312C177.57 195.978 209.707 202.432 203.28 169.029C196.852 135.627 140.049 151.925 124.543 86.2487C109.036 20.5727 68.3019 3.46799 61.071 20.5728C53.84 37.839 74.7294 178.711 61.071 223.894Z" stroke="#FFCF00" stroke-opacity="0.74" stroke-width="0.1563" stroke-miterlimit="10"/>
<path d="M71.3553 212.599C71.3553 212.599 71.5963 235.513 81.3983 230.026C91.2002 224.54 118.196 245.195 124.623 257.136C131.051 269.077 139.728 231.801 155.315 210.339C170.901 188.716 198.299 194.203 192.835 165.802C187.372 137.24 138.844 151.118 125.587 95.1241C112.331 39.1301 77.5418 24.2845 71.3553 39.1302C65.1688 53.9759 83.0855 174.032 71.3553 212.599Z" stroke="#FFCF00" stroke-opacity="0.74" stroke-width="0.1563" stroke-miterlimit="10"/>
<path d="M81.7194 201.465C81.7194 201.465 81.8801 220.506 90.0751 215.988C98.2702 211.47 120.606 228.574 125.909 238.418C131.211 248.261 138.442 217.44 151.297 199.529C164.233 181.617 186.97 186.135 182.39 162.576C177.811 139.016 137.639 150.473 126.632 104C115.625 57.5267 86.7811 45.263 81.639 57.5268C76.5774 69.6293 91.3606 169.353 81.7194 201.465Z" stroke="#FFE05C" stroke-miterlimit="10"/>
<path d="M92.0037 190.168C92.0037 190.168 92.1644 205.337 98.6723 201.625C105.18 197.914 122.936 211.63 127.114 219.537C131.292 227.444 137.077 202.916 147.28 188.716C157.564 174.516 175.561 178.066 172.026 159.347C168.411 140.629 136.434 149.665 127.757 112.713C118.999 75.7598 96.1013 66.0779 92.0841 75.7598C88.0669 85.4418 99.7168 164.672 92.0037 190.168Z" stroke="#FFCF00" stroke-opacity="0.74" stroke-width="0.1563" stroke-miterlimit="10"/>
<path d="M102.368 178.873C102.368 178.873 102.448 190.007 107.269 187.425C112.089 184.682 125.266 194.848 128.399 200.657C131.533 206.466 135.791 188.393 143.343 177.743C150.896 167.254 164.313 169.836 161.662 155.959C159.01 142.081 135.309 148.859 128.881 121.426C122.373 93.9942 105.421 86.8941 102.448 93.9942C99.3147 101.256 107.992 159.993 102.368 178.873Z" stroke="#FFCF00" stroke-opacity="0.74" stroke-width="0.1563" stroke-miterlimit="10"/>
<path d="M112.652 167.577C112.652 167.577 112.733 174.839 115.866 173.064C118.999 171.289 127.516 177.905 129.605 181.616C131.613 185.327 134.425 173.548 139.326 166.77C144.227 159.993 152.985 161.607 151.217 152.57C149.45 143.534 134.104 147.891 129.926 130.14C125.748 112.39 114.661 107.711 112.733 112.39C110.724 117.07 116.348 155.314 112.652 167.577Z" stroke="#FFCF00" stroke-opacity="0.74" stroke-width="0.1563" stroke-miterlimit="10"/>
<path d="M122.935 156.281C122.935 156.281 122.936 159.67 124.382 158.863C125.828 158.056 129.765 161.122 130.729 162.897C131.693 164.672 132.978 159.185 135.228 155.958C137.478 152.731 141.495 153.538 140.691 149.504C139.888 145.308 132.818 147.406 130.809 139.176C128.881 130.946 123.739 128.849 122.855 130.947C122.052 133.044 124.703 150.633 122.935 156.281Z" stroke="#FFE05C" stroke-miterlimit="10"/>
<path d="M62.0355 -25.9011C63.5621 -10.7327 70.552 -0.566717 78.1847 -2.34175C90.0756 -5.24635 108.474 23.4768 122.776 57.3636C145.834 112.228 128.801 98.0278 155.636 119.489C182.391 140.951 208.101 158.379 211.877 146.438C215.653 134.496 216.135 22.0245 248.835 14.2789C281.535 6.53327 251.647 -182.749 240.238 -201.145C228.83 -219.54 191.952 -215.184 140.853 -186.138C89.7542 -157.092 80.354 -185.976 65.892 -132.403C56.9739 -98.8386 59.1431 -54.6243 62.0355 -25.9011Z" stroke="#FFCF00" stroke-opacity="0.74" stroke-width="0.1563" stroke-miterlimit="10"/>
<path d="M67.658 -23.9647C69.1042 -9.76447 75.6924 -0.243874 82.843 -1.85755C94.0108 -4.60079 111.044 21.8631 124.381 53.6522C145.993 105.128 130.246 92.2187 155.394 112.389C180.541 132.56 204.644 148.858 208.099 137.724C211.634 126.59 212.116 21.0561 242.727 13.7945C273.338 6.53302 245.379 -170.969 234.693 -188.074C224.007 -205.179 189.459 -201.145 141.494 -173.874C93.5287 -146.603 84.7713 -173.712 71.2735 -123.366C62.8374 -92.3839 64.9263 -50.9128 67.658 -23.9647Z" stroke="#FFCF00" stroke-opacity="0.74" stroke-width="0.1563" stroke-miterlimit="10"/>
<path d="M73.2837 -22.0283C74.6495 -8.79626 80.7557 0.240202 87.4242 -1.37347C97.8689 -3.95535 113.536 20.2495 125.989 49.7795C146.156 97.8665 131.694 86.4095 155.154 105.289C178.615 124.169 201.111 139.337 204.325 128.849C207.619 118.36 208.101 19.9266 236.703 13.1492C265.306 6.37173 239.194 -159.351 229.231 -175.326C219.269 -191.301 186.97 -187.59 142.299 -162.094C97.5476 -136.598 89.3525 -161.933 76.7385 -114.975C68.7844 -85.7679 70.7127 -47.2013 73.2837 -22.0283Z" stroke="#FFCF00" stroke-opacity="0.74" stroke-width="0.1563" stroke-miterlimit="10"/>
<path d="M78.8264 -20.0921C80.1119 -7.82831 85.736 0.562793 91.9225 -1.05088C101.644 -3.47139 115.945 18.313 127.515 45.9065C146.235 90.4435 133.059 80.6002 154.832 98.0277C176.605 115.455 197.494 129.655 200.548 119.973C203.601 110.291 204.002 18.7969 230.596 12.5035C257.11 6.2102 232.926 -147.572 223.606 -162.417C214.367 -177.263 184.398 -173.713 142.861 -150.153C101.323 -126.594 93.6901 -149.992 81.9598 -106.423C74.7289 -79.3135 76.4964 -43.4902 78.8264 -20.0921Z" stroke="#FFCF00" stroke-opacity="0.74" stroke-width="0.1563" stroke-miterlimit="10"/>
<path d="M84.4508 -18.1562C85.5756 -6.86064 90.8783 0.884952 96.5828 -0.567352C105.501 -2.66513 118.517 16.6987 129.122 42.0331C146.396 83.1814 134.505 74.629 154.591 90.7656C174.677 106.902 193.96 119.973 196.772 111.098C199.584 102.223 199.985 17.6668 224.49 11.8576C248.995 6.04836 226.579 -135.954 218.063 -149.67C209.546 -163.386 181.828 -160.158 143.504 -138.374C105.18 -116.589 98.1093 -138.212 87.3432 -98.0324C80.5943 -72.8593 82.2815 -39.7793 84.4508 -18.1562Z" stroke="#FFE05C" stroke-miterlimit="10"/>
<path d="M90.0767 -16.2194C91.1212 -5.89198 95.9418 1.20811 101.164 -0.0828257C109.359 -2.01923 120.929 14.9241 130.731 38.3222C146.558 76.0818 135.953 68.9818 154.352 83.6661C172.751 98.3503 190.426 110.453 192.997 102.223C195.568 93.9934 195.97 16.699 218.386 11.3739C240.882 6.04875 220.314 -124.174 212.521 -136.76C204.647 -149.347 179.339 -146.442 144.229 -126.432C109.118 -106.423 102.61 -126.432 92.7281 -89.4796C86.5416 -66.4043 88.0681 -36.0674 90.0767 -16.2194Z" stroke="#FFCF00" stroke-opacity="0.74" stroke-width="0.1563" stroke-miterlimit="10"/>
<path d="M95.6987 -14.2829C96.6628 -4.92366 101.001 1.53092 105.822 0.401349C113.294 -1.37369 123.498 13.3106 132.416 34.4496C146.797 68.8205 137.478 63.0113 154.189 76.566C170.901 89.9594 186.969 100.932 189.299 93.5094C191.629 86.0865 191.951 15.7309 212.438 10.8899C232.926 6.0489 214.206 -112.232 207.055 -123.689C199.905 -135.146 176.926 -132.403 144.95 -114.33C112.973 -96.0955 107.108 -114.33 98.109 -80.7657C92.485 -59.9495 93.8508 -32.3559 95.6987 -14.2829Z" stroke="#FFCF00" stroke-opacity="0.74" stroke-width="0.1563" stroke-miterlimit="10"/>
<path d="M101.243 -12.5086C102.127 -3.95618 106.064 1.69164 110.322 0.723436C116.991 -0.890237 125.909 11.5349 133.943 30.5761C146.879 61.397 138.844 57.2015 153.868 69.3039C168.893 81.4063 183.435 91.2497 185.524 84.4723C187.613 77.6949 187.934 14.4394 206.333 10.0824C224.732 5.72553 207.94 -100.776 201.512 -111.103C195.085 -121.431 174.356 -119.01 145.593 -102.551C116.83 -86.2529 111.608 -102.551 103.413 -72.214C98.4312 -53.4955 99.6363 -28.6452 101.243 -12.5086Z" stroke="#FFCF00" stroke-opacity="0.74" stroke-width="0.1563" stroke-miterlimit="10"/>
<path d="M106.866 -10.5726C107.669 -2.98839 111.124 2.17528 114.98 1.20708C120.926 -0.24522 128.478 9.75942 135.548 26.7028C147.038 54.1349 140.208 51.3918 153.626 62.0419C167.043 72.8534 179.898 81.5671 181.746 75.5966C183.594 69.6261 183.916 13.3094 200.225 9.43662C216.535 5.56381 201.672 -89.1578 195.967 -98.1943C190.263 -107.392 171.864 -105.133 146.234 -90.61C120.685 -76.087 116.025 -90.61 108.794 -63.6619C104.295 -47.0413 105.419 -24.9341 106.866 -10.5726Z" stroke="#FFE05C" stroke-miterlimit="10"/>
<path d="M112.492 -8.63514C113.135 -2.01913 116.268 2.49905 119.562 1.69222C124.784 0.401277 130.971 8.14686 137.157 22.9925C147.2 47.036 141.657 45.5838 153.387 55.1044C165.117 64.4636 176.365 72.2091 177.972 66.884C179.579 61.7203 179.82 12.3423 194.121 9.11496C208.423 5.72625 195.326 -77.0545 190.345 -85.1228C185.364 -93.1911 169.215 -91.2546 146.879 -78.5067C124.543 -65.7587 120.446 -78.5067 114.099 -54.9472C110.242 -40.5856 111.206 -21.2217 112.492 -8.63514Z" stroke="#FFCF00" stroke-opacity="0.74" stroke-width="0.1563" stroke-miterlimit="10"/>
<path d="M118.036 -6.69833C118.599 -1.05051 121.25 2.82227 124.062 2.1768C128.561 1.04722 133.382 6.37229 138.685 19.1202C147.362 39.775 143.023 39.775 153.066 47.8433C163.109 55.9116 172.75 62.5276 174.116 58.0093C175.563 53.4911 175.723 11.3745 188.016 8.46988C200.308 5.56527 189.06 -65.4358 184.802 -72.2131C180.544 -79.1519 166.725 -77.5382 147.522 -66.5653C128.32 -55.5923 124.865 -66.5652 119.402 -46.3944C116.188 -34.1306 116.992 -17.5098 118.036 -6.69833Z" stroke="#FFCF00" stroke-opacity="0.74" stroke-width="0.1563" stroke-miterlimit="10"/>
<path d="M123.658 -4.76302C124.14 -0.0834025 126.31 3.14398 128.72 2.65987C132.416 1.69167 135.871 4.75756 140.37 15.4077C147.601 32.5125 144.548 34.1262 152.903 40.7422C161.259 47.5195 169.294 52.8446 170.499 49.1332C171.704 45.4218 171.865 10.244 182.068 7.8235C192.272 5.40299 182.952 -53.8183 179.417 -59.4661C175.882 -65.1139 164.312 -63.8231 148.324 -54.7865C132.335 -45.75 129.443 -54.7865 124.944 -38.0044C122.051 -27.5156 122.775 -13.7995 123.658 -4.76302Z" stroke="#FFCF00" stroke-opacity="0.74" stroke-width="0.1563" stroke-miterlimit="10"/>
<path d="M129.283 -2.82492C129.685 0.886494 131.452 3.4684 133.3 2.9843C136.273 2.33883 138.362 2.98421 141.897 11.3752C147.682 25.0913 145.914 27.9959 152.583 33.4823C159.251 38.8074 165.679 43.1643 166.643 40.2597C167.607 37.1937 167.687 9.11609 175.882 7.17968C184.077 5.24328 176.605 -42.0369 173.713 -46.7165C170.901 -51.2347 161.661 -50.2665 148.887 -43.005C136.112 -35.7435 133.782 -43.005 130.167 -29.6116C127.997 -21.0592 128.56 -10.0864 129.283 -2.82492Z" stroke="#FFE05C" stroke-miterlimit="10"/>
<path d="M132.418 -3.79384C132.739 -0.566527 134.265 1.69261 135.953 1.36987C138.524 0.724395 140.372 1.36981 143.505 8.79262C148.567 20.7337 147.04 23.3155 152.905 28.1565C158.77 32.8361 164.394 36.7088 165.198 34.127C166.001 31.5451 166.162 6.85612 173.313 5.24243C180.463 3.62875 173.955 -37.8423 171.465 -41.8764C168.974 -45.9105 160.94 -44.9423 149.692 -38.649C138.524 -32.3557 136.435 -38.6488 133.301 -26.8691C131.293 -19.769 131.775 -10.0871 132.418 -3.79384Z" stroke="#FFCF00" stroke-opacity="0.74" stroke-width="0.1563" stroke-miterlimit="10"/>
<path d="M135.469 -4.60027C135.79 -1.69568 137.076 0.0793551 138.522 -0.243382C140.772 -0.727489 142.298 -0.243456 145.03 6.0498C149.368 16.3772 148.083 18.6363 153.064 22.6704C158.046 26.7045 162.947 29.9319 163.589 27.6728C164.312 25.4137 164.393 4.2747 170.499 2.82238C176.605 1.37006 171.061 -34.1304 168.892 -37.5191C166.723 -40.9077 159.813 -40.1009 150.252 -34.6144C140.691 -29.1279 138.924 -34.6143 136.192 -24.4482C134.505 -18.3163 134.906 -10.0867 135.469 -4.60027Z" stroke="#FFCF00" stroke-opacity="0.74" stroke-width="0.1563" stroke-miterlimit="10"/>
<path d="M138.603 -5.56917C138.844 -3.14868 139.969 -1.53495 141.094 -1.85769C142.941 -2.34179 144.227 -1.85772 146.477 3.46734C150.092 12.0197 148.967 13.9561 153.145 17.1834C157.323 20.5721 161.34 23.3152 161.903 21.3788C162.465 19.4424 162.545 1.8536 167.687 0.724017C172.829 -0.405564 168.169 -30.0969 166.321 -33.0015C164.554 -35.906 158.769 -35.2606 150.815 -30.5809C142.861 -26.0626 141.335 -30.5809 139.085 -22.1898C137.799 -16.8647 138.121 -10.0874 138.603 -5.56917Z" stroke="#FFCF00" stroke-opacity="0.74" stroke-width="0.1563" stroke-miterlimit="10"/>
<path d="M141.738 -6.37638C141.898 -4.43999 142.782 -3.14899 143.746 -3.47172C145.273 -3.79446 146.317 -3.47177 148.085 0.723731C150.977 7.66245 150.094 9.11473 153.468 11.6966C156.842 14.4398 160.056 16.5376 160.538 15.0853C161.02 13.633 161.101 -0.405863 165.198 -1.37408C169.296 -2.34229 165.52 -26.0631 164.154 -28.3222C162.708 -30.5813 158.128 -30.0972 151.7 -26.3857C145.273 -22.6743 144.148 -26.3857 142.3 -19.6083C141.095 -15.5742 141.336 -10.0878 141.738 -6.37638Z" stroke="#FFCF00" stroke-opacity="0.74" stroke-width="0.1563" stroke-miterlimit="10"/>
<path d="M144.79 -7.34434C144.95 -5.89205 145.593 -4.92381 146.316 -5.08518C147.441 -5.40792 148.244 -5.08519 149.53 -1.85788C151.699 3.30582 151.056 4.43535 153.547 6.37173C156.038 8.30811 158.448 10.0831 158.85 8.95352C159.171 7.82396 159.251 -2.66475 162.305 -3.47159C165.358 -4.11707 162.546 -21.8673 161.501 -23.6423C160.457 -25.4173 157.002 -24.9333 152.181 -22.1901C147.361 -19.4468 146.477 -22.19 145.191 -17.1876C144.307 -14.1217 144.549 -10.0876 144.79 -7.34434Z" stroke="#FFCF00" stroke-opacity="0.74" stroke-width="0.1563" stroke-miterlimit="10"/>
<path d="M147.923 -8.15156C148.003 -7.18337 148.485 -6.53788 148.967 -6.69924C149.691 -6.86061 150.253 -6.69927 151.137 -4.60153C152.583 -1.21287 152.181 -0.406105 153.788 0.884807C155.475 2.17572 157.082 3.30527 157.323 2.49844C157.564 1.69162 157.564 -5.24703 159.653 -5.73114C161.662 -6.21524 159.814 -17.9948 159.091 -19.1244C158.368 -20.2539 156.038 -19.9312 152.904 -18.1562C149.771 -16.3812 149.128 -18.1561 148.244 -14.7675C147.602 -12.8311 147.762 -10.0879 147.923 -8.15156Z" stroke="#FFE05C" stroke-miterlimit="10"/>
<path d="M266.272 5.08125C269.405 8.95403 273.181 10.4063 276.877 10.5676C290.696 11.0517 319.861 9.59942 322.995 -9.7645C327.012 -35.2603 313.916 -33.1625 307.729 -46.5559C301.543 -59.9493 273.985 -101.904 269.968 -94.9657C265.95 -88.0269 278.645 -73.9881 272.619 -50.106C266.593 -26.2238 275.11 -17.8328 269.405 -4.11664C266.272 3.3062 265.629 4.43578 266.272 5.08125Z" stroke="#FFCF00" stroke-opacity="0.74" stroke-width="0.1563" stroke-miterlimit="10"/>
<path d="M269.807 0.0786597C272.539 3.30597 275.753 4.59694 278.886 4.7583C290.697 5.081 315.603 3.95137 318.255 -12.508C321.709 -34.2924 310.541 -32.5173 305.239 -43.8129C299.936 -55.1085 276.395 -91.0931 273.021 -85.1226C269.566 -79.3134 280.412 -67.211 275.27 -46.8788C270.128 -26.5467 277.44 -19.2852 272.539 -7.50547C269.807 -1.37356 269.325 -0.566804 269.807 0.0786597Z" stroke="#FFCF00" stroke-opacity="0.74" stroke-width="0.1563" stroke-miterlimit="10"/>
</svg>
